HIERARCHY
ROOT Hips
{
	OFFSET 0.000000 103.266502 0.000000
	CHANNELS 6 Xposition Yposition Zposition Xrotation Yrotation Zrotation 
	JOINT Spine
	{
		OFFSET -0.002400 12.777504 0.315300
		CHANNELS 3 Xrotation Yrotation Zrotation
		JOINT Spine1
		{
			OFFSET -0.002067 5.816869 0.032633
			CHANNELS 3 Xrotation Yrotation Zrotation
			JOINT Spine1_split
			{
				OFFSET -0.002067 5.816869 0.032633
				CHANNELS 3 Xrotation Yrotation Zrotation
				JOINT Spine2
				{
					OFFSET -0.002067 5.816869 0.032633
					CHANNELS 3 Xrotation Yrotation Zrotation
					JOINT Neck
					{
						OFFSET -0.003700 21.199493 -0.826900
						CHANNELS 3 Xrotation Yrotation Zrotation
						JOINT Head
						{
							OFFSET 0.000000 20.442200 4.834800
							CHANNELS 3 Xrotation Yrotation Zrotation
							JOINT HeadTop_End
							{
								OFFSET 0.000000 34.668396 4.968400
								CHANNELS 3 Xrotation Yrotation Zrotation
								End Site
								{
									OFFSET 0.000000 0.000000 0.000000
								}
							}
						}
					}
					JOINT LeftShoulder
					{
						OFFSET 3.288150 8.794197 -1.372250
						CHANNELS 3 Xrotation Yrotation Zrotation
						JOINT LeftShoulder_split
						{
							OFFSET 3.288150 8.794197 -1.372250
							CHANNELS 3 Xrotation Yrotation Zrotation
							JOINT LeftArm
							{
								OFFSET 11.953299 -2.279007 -0.146200
								CHANNELS 3 Xrotation Yrotation Zrotation
								JOINT LeftForeArm
								{
									OFFSET 18.448900 0.000000 0.000000
									CHANNELS 3 Xrotation Yrotation Zrotation
									JOINT LeftHand
									{
										OFFSET 29.527798 0.000000 0.000000
										CHANNELS 3 Xrotation Yrotation Zrotation
										JOINT LeftHandThumb1
										{
											OFFSET 10.739754 -2.369614 9.225399
											CHANNELS 3 Xrotation Yrotation Zrotation
											JOINT LeftHandThumb2
											{
												OFFSET 4.926170 -2.844131 2.844125
												CHANNELS 3 Xrotation Yrotation Zrotation
												JOINT LeftHandThumb3
												{
													OFFSET 4.614891 -2.664413 2.664409
													CHANNELS 3 Xrotation Yrotation Zrotation
													JOINT LeftHandThumb4
													{
														OFFSET 4.432465 -2.559082 2.559083
														CHANNELS 3 Xrotation Yrotation Zrotation
														End Site
														{
															OFFSET 0.000000 0.000000 0.000000
														}
													}
												}
											}
										}
										JOINT LeftHandIndex1
										{
											OFFSET 26.467674 0.187653 6.405298
											CHANNELS 3 Xrotation Yrotation Zrotation
											JOINT LeftHandIndex2
											{
												OFFSET 8.792900 0.000000 0.000000
												CHANNELS 3 Xrotation Yrotation Zrotation
												JOINT LeftHandIndex3
												{
													OFFSET 10.075203 0.000000 0.000000
													CHANNELS 3 Xrotation Yrotation Zrotation
													End Site
													{
														OFFSET 0.000000 0.000000 0.000000
													}
												}
											}
										}
										JOINT LeftHandMiddle1
										{
											OFFSET 25.764404 0.000000 0.000000
											CHANNELS 3 Xrotation Yrotation Zrotation
											JOINT LeftHandMiddle2
											{
												OFFSET 9.393974 0.000000 0.000000
												CHANNELS 3 Xrotation Yrotation Zrotation
												JOINT LeftHandMiddle3
												{
													OFFSET 10.771950 0.000000 0.000000
													CHANNELS 3 Xrotation Yrotation Zrotation
													End Site
													{
														OFFSET 0.000000 0.000000 0.000000
													}
												}
											}
										}
										JOINT LeftHandRing1
										{
											OFFSET 24.660927 0.144547 -6.225808
											CHANNELS 3 Xrotation Yrotation Zrotation
											JOINT LeftHandRing2
											{
												OFFSET 9.393799 0.000000 0.000000
												CHANNELS 3 Xrotation Yrotation Zrotation
												JOINT LeftHandRing3
												{
													OFFSET 9.928497 0.000000 0.000000
													CHANNELS 3 Xrotation Yrotation Zrotation
													End Site
													{
														OFFSET 0.000000 0.000000 0.000000
													}
												}
											}
										}
										JOINT LeftHandPinky1
										{
											OFFSET 23.655350 0.125290 -12.815412
											CHANNELS 3 Xrotation Yrotation Zrotation
											JOINT LeftHandPinky2
											{
												OFFSET 8.425102 0.000000 0.000000
												CHANNELS 3 Xrotation Yrotation Zrotation
												JOINT LeftHandPinky3
												{
													OFFSET 8.147003 0.000000 0.000000
													CHANNELS 3 Xrotation Yrotation Zrotation
													End Site
													{
														OFFSET 0.000000 0.000000 0.000000
													}
												}
											}
										}
									}
								}
							}
						}
					}
					JOINT RightShoulder
					{
						OFFSET -3.249400 8.794197 -1.372250
						CHANNELS 3 Xrotation Yrotation Zrotation
						JOINT RightShoulder_split
						{
							OFFSET -3.249400 8.794197 -1.372250
							CHANNELS 3 Xrotation Yrotation Zrotation
							JOINT RightArm
							{
								OFFSET -11.953299 -2.279007 -0.146200
								CHANNELS 3 Xrotation Yrotation Zrotation
								JOINT RightForeArm
								{
									OFFSET -18.448900 0.000000 0.000000
									CHANNELS 3 Xrotation Yrotation Zrotation
									JOINT RightHand
									{
										OFFSET -29.527802 0.000000 0.000000
										CHANNELS 3 Xrotation Yrotation Zrotation
										JOINT RightHandThumb1
										{
											OFFSET -10.739754 -2.369614 9.225399
											CHANNELS 3 Xrotation Yrotation Zrotation
											JOINT RightHandThumb2
											{
												OFFSET -4.926170 -2.844131 2.844125
												CHANNELS 3 Xrotation Yrotation Zrotation
												JOINT RightHandThumb3
												{
													OFFSET -4.614891 -2.664413 2.664409
													CHANNELS 3 Xrotation Yrotation Zrotation
													JOINT RightHandThumb4
													{
														OFFSET -4.432465 -2.559082 2.559083
														CHANNELS 3 Xrotation Yrotation Zrotation
														End Site
														{
															OFFSET 0.000000 0.000000 0.000000
														}
													}
												}
											}
										}
										JOINT RightHandIndex1
										{
											OFFSET -26.467674 0.187653 6.405298
											CHANNELS 3 Xrotation Yrotation Zrotation
											JOINT RightHandIndex2
											{
												OFFSET -8.792900 0.000000 0.000000
												CHANNELS 3 Xrotation Yrotation Zrotation
												JOINT RightHandIndex3
												{
													OFFSET -10.075203 0.000000 0.000000
													CHANNELS 3 Xrotation Yrotation Zrotation
													End Site
													{
														OFFSET 0.000000 0.000000 0.000000
													}
												}
											}
										}
										JOINT RightHandMiddle1
										{
											OFFSET -25.764404 0.000000 0.000000
											CHANNELS 3 Xrotation Yrotation Zrotation
											JOINT RightHandMiddle2
											{
												OFFSET -9.393974 0.000000 0.000000
												CHANNELS 3 Xrotation Yrotation Zrotation
												JOINT RightHandMiddle3
												{
													OFFSET -10.771950 0.000000 0.000000
													CHANNELS 3 Xrotation Yrotation Zrotation
													End Site
													{
														OFFSET 0.000000 0.000000 0.000000
													}
												}
											}
										}
										JOINT RightHandRing1
										{
											OFFSET -24.660927 0.144547 -6.225808
											CHANNELS 3 Xrotation Yrotation Zrotation
											JOINT RightHandRing2
											{
												OFFSET -9.393799 0.000000 0.000000
												CHANNELS 3 Xrotation Yrotation Zrotation
												JOINT RightHandRing3
												{
													OFFSET -9.928497 0.000000 0.000000
													CHANNELS 3 Xrotation Yrotation Zrotation
													End Site
													{
														OFFSET 0.000000 0.000000 0.000000
													}
												}
											}
										}
										JOINT RightHandPinky1
										{
											OFFSET -23.655350 0.125290 -12.815412
											CHANNELS 3 Xrotation Yrotation Zrotation
											JOINT RightHandPinky2
											{
												OFFSET -8.425102 0.000000 0.000000
												CHANNELS 3 Xrotation Yrotation Zrotation
												JOINT RightHandPinky3
												{
													OFFSET -8.147003 0.000000 0.000000
													CHANNELS 3 Xrotation Yrotation Zrotation
													End Site
													{
														OFFSET 0.000000 0.000000 0.000000
													}
												}
											}
										}
									}
								}
							}
						}
					}
				}
			}
		}
	}
	JOINT LeftUpLeg
	{
		OFFSET 11.394100 -6.187798 -0.413800
		CHANNELS 3 Xrotation Yrotation Zrotation
		JOINT LeftLeg
		{
			OFFSET 0.430247 -32.302673 3.732800
			CHANNELS 3 Xrotation Yrotation Zrotation
			JOINT LeftFoot
			{
				OFFSET -0.430247 -48.264931 -6.423300
				CHANNELS 3 Xrotation Yrotation Zrotation
				JOINT LeftToeBase
				{
					OFFSET 4.230900 -16.068199 23.438400
					CHANNELS 3 Xrotation Yrotation Zrotation
					JOINT LeftToe_End
					{
						OFFSET 4.510700 0.695400 19.974600
						CHANNELS 3 Xrotation Yrotation Zrotation
						End Site
						{
							OFFSET 0.000000 0.000000 0.000000
						}
					}
				}
			}
		}
	}
	JOINT RightUpLeg
	{
		OFFSET -11.333700 -6.187798 -0.413800
		CHANNELS 3 Xrotation Yrotation Zrotation
		JOINT RightLeg
		{
			OFFSET -0.430392 -32.302628 3.733000
			CHANNELS 3 Xrotation Yrotation Zrotation
			JOINT RightFoot
			{
				OFFSET 0.430392 -48.264973 -6.423500
				CHANNELS 3 Xrotation Yrotation Zrotation
				JOINT RightToeBase
				{
					OFFSET -4.230900 -16.068199 23.438400
					CHANNELS 3 Xrotation Yrotation Zrotation
					JOINT RightToe_End
					{
						OFFSET -4.510700 0.695400 19.974600
						CHANNELS 3 Xrotation Yrotation Zrotation
						End Site
						{
							OFFSET 0.000000 0.000000 0.000000
						}
					}
				}
			}
		}
	}
}
MOTION
Frames: 4
Frame Time: 0.016667
193.623093 15.806473 -37.530155 54.028548 205.368134 230.718408 12.100544 2.519414 1.720769 24.200993 5.707155 2.256765 0.000000 0.000000 0.000000 24.200988 5.707171 2.256780 56.768110 -4.708989 -18.365636 -27.541957 -9.260015 20.113290 0.000002 -0.000001 -0.000003 0.826493 4.176649 27.061191 0.000000 0.000000 0.000000 -21.500751 -16.600696 -7.566942 0.248455 -108.744740 0.233965 -1.960210 7.066430 19.245284 -3.269887 -2.950324 2.445906 6.363633 5.687385 -6.261551 0.000010 -0.000006 -0.000007 0.000001 0.000000 -0.000000 -2.181510 1.448993 -9.293715 0.033633 0.552089 -14.681548 0.000000 0.000000 -0.000002 -0.369303 0.913323 -21.544739 -0.502597 -1.800277 -26.483411 0.000001 -0.000000 -0.000003 -0.931025 3.368092 -28.899186 -0.351977 -2.121505 -21.850810 0.000001 0.000000 -0.000001 0.523309 5.278452 -26.022937 -0.846842 -5.236648 -31.985434 -0.000001 0.000000 0.000001 2.759754 8.250648 -10.588910 0.000000 0.000000 0.000000 -57.649057 -5.834105 42.145354 0.058556 119.763378 -0.066480 30.555073 10.082321 -24.848708 6.507440 5.943993 -8.205811 0.308329 -2.673170 -2.026410 -0.000003 0.000001 -0.000007 0.000000 0.000001 0.000004 -3.218589 0.338186 -13.313583 0.023746 0.208821 -0.000040 -0.000000 -0.000001 -0.000001 -2.741306 -2.097332 -13.344318 0.039699 -0.113984 0.011390 -0.000001 0.000001 -0.000001 -2.221665 -6.757300 -8.023627 -0.013498 0.271983 0.000024 0.000002 0.000000 0.000001 2.103467 -7.884685 4.939287 -0.291340 5.357225 14.254937 -0.000001 0.000001 0.000001 -98.236493 8.335950 9.398778 118.116770 -2.409435 -3.182918 13.693496 -4.641660 -7.181475 2.062785 1.449630 -1.075910 -0.000000 0.000000 -0.000002 -111.277162 -5.336017 0.371864 84.468055 0.342741 2.610672 -2.099908 2.543467 17.340983 -0.012202 -0.109735 0.262093 -0.000001 -0.000001 -0.000000 
194.619202 14.024483 -38.165287 54.653695 200.062279 235.380722 12.110394 2.636566 1.995375 24.205454 6.078913 2.810431 0.000000 0.000000 0.000000 24.205470 6.078908 2.810425 57.480365 -3.925635 -18.447412 -25.082724 -8.467437 21.826284 -0.000001 0.000000 -0.000003 0.899511 3.368689 24.482586 0.000000 0.000000 0.000000 -14.606300 -19.867045 -3.868310 0.354719 -104.424324 0.337873 -4.669642 6.592303 21.857640 -3.133893 -3.128525 2.072195 6.459735 5.436987 -6.660198 0.000010 -0.000007 -0.000007 -0.000001 0.000000 0.000001 -2.376743 1.613016 -8.894060 0.030293 0.533002 -14.400267 0.000002 0.000000 -0.000004 -0.361507 0.964854 -21.923720 -0.516447 -1.835419 -26.743249 0.000001 -0.000001 0.000001 -0.959564 3.242987 -28.884242 -0.358828 -2.130782 -22.188216 -0.000002 0.000002 -0.000003 0.422601 4.920203 -26.484270 -0.811162 -5.130998 -31.831902 -0.000000 -0.000001 0.000001 3.074228 7.560843 -12.803212 0.000000 0.000000 0.000000 -40.315472 -8.927976 48.040136 0.085619 116.790689 -0.090148 40.428590 7.346907 -27.686419 9.080917 6.991074 -6.854931 -0.534555 -0.974995 -1.909476 0.000001 0.000002 -0.000006 0.000003 -0.000001 -0.000001 -4.050271 -0.157101 -12.989645 0.010742 0.010871 -0.000004 -0.000001 -0.000003 -0.000002 -3.380164 -2.013611 -16.151142 0.066076 -0.021677 0.003129 -0.000000 0.000002 0.000003 -4.069083 -5.491772 -3.840699 0.001731 0.401748 0.000009 0.000001 0.000001 0.000000 0.468026 -4.535772 10.858800 -0.591298 6.307195 20.037571 0.000000 -0.000000 -0.000000 -92.532049 7.284171 7.636324 118.040477 -2.061643 -3.136447 12.705386 -6.415683 -9.876120 2.940270 1.444433 -1.088188 0.000000 -0.000001 -0.000003 -106.944732 -6.417766 -0.020461 84.982812 0.504522 2.637906 -3.404628 2.090979 16.040235 -0.012189 -0.109734 0.262118 -0.000001 0.000003 0.000001 
195.828339 12.841637 -38.774189 54.681470 194.539511 240.243462 12.052771 2.694379 2.245465 24.076787 6.263979 3.298516 0.000000 0.000000 0.000000 24.076789 6.263979 3.298504 58.211851 -3.060426 -17.835289 -23.111408 -7.490905 22.712631 0.000000 -0.000000 0.000000 1.106687 2.229517 21.865693 0.000000 0.000000 0.000000 -8.044692 -21.912753 0.331381 0.504184 -100.515564 0.483650 -7.464040 4.378059 27.133094 -3.030158 -3.261353 1.789450 6.532176 5.246526 -6.961253 0.000011 -0.000007 -0.000009 -0.000001 0.000000 -0.000001 -2.566427 1.768171 -8.498524 0.026914 0.514258 -14.103373 -0.000001 0.000000 0.000000 -0.349272 1.015436 -22.255726 -0.529863 -1.867093 -26.970414 -0.000002 0.000000 0.000004 -1.000492 3.115068 -28.867726 -0.363714 -2.137676 -22.483350 0.000002 -0.000001 -0.000000 0.306757 4.583564 -26.815845 -0.771148 -5.026553 -31.633652 0.000000 0.000001 0.000001 3.006489 6.979988 -13.209510 0.000000 0.000000 0.000000 -24.883240 -9.196734 51.059325 0.144113 108.653495 -0.132229 49.791611 0.108401 -33.736483 11.232854 7.962242 -5.436352 -0.991351 -0.153144 -1.907237 0.000003 0.000007 -0.000003 0.000002 0.000003 -0.000001 -4.856092 -0.741983 -11.696883 0.000002 -0.423342 0.042114 0.000001 -0.000002 0.000001 -4.002447 -1.861618 -17.305970 0.077285 0.012098 0.000126 0.000001 0.000002 0.000002 -6.095274 -4.440946 1.307397 -0.008295 0.878758 3.650590 0.000000 0.000003 -0.000001 -1.644620 -1.402754 16.800515 -0.986741 7.222212 25.836232 0.000001 0.000003 0.000001 -87.690572 6.524581 6.078717 117.829861 -1.887829 -3.115279 12.406714 -6.862096 -11.292885 3.049590 1.003086 -0.719901 -0.000000 0.000000 -0.000001 -102.864397 -6.705950 -0.771988 85.089076 0.617908 2.651878 -4.649306 1.717591 14.785966 -0.012209 -0.109726 0.262081 0.000001 0.000003 -0.000000 
197.492004 11.853600 -39.366138 54.184984 188.515489 245.380065 11.870574 2.667845 2.442511 23.705756 6.193826 3.640061 0.000000 0.000000 0.000000 23.705756 6.193823 3.640061 58.660267 -2.363918 -16.804096 -22.201528 -6.647934 22.500067 0.000000 0.000000 -0.000001 1.311810 1.043484 19.573574 0.000000 0.000000 0.000000 -2.184757 -21.315405 2.321627 0.553217 -99.110375 0.528775 -7.420668 0.340500 36.334796 -1.617110 -3.443769 1.781894 6.670564 5.016639 -7.429574 0.000011 -0.000008 -0.000004 0.000000 0.000000 -0.000000 -2.740590 1.901290 -8.112372 0.023662 0.496719 -13.783380 -0.000000 0.000000 -0.000001 -0.335100 1.060533 -22.530888 -0.542007 -1.893756 -27.158424 -0.000000 0.000000 -0.000000 -1.054356 2.979435 -28.849165 -0.366860 -2.142716 -22.727714 -0.000000 -0.000003 -0.000000 0.166343 4.266773 -27.072771 -0.732805 -4.937666 -31.470913 0.000001 -0.000000 -0.000001 2.058697 6.641523 -9.781840 0.000000 0.000000 0.000000 -17.790264 -3.547549 48.458693 0.545968 93.753581 -0.516979 44.210913 -8.940481 -42.468952 12.926587 8.813793 -4.083785 -1.071286 -0.171215 -2.021268 -0.000002 0.000004 -0.000004 -0.000000 0.000001 -0.000002 -5.540314 -1.397988 -9.917195 0.014413 -0.663873 4.501008 0.000001 -0.000001 0.000001 -4.569649 -1.700310 -16.210609 0.061367 -0.036734 0.004488 0.000001 -0.000006 -0.000001 -8.208138 -3.920787 6.976335 -0.122027 1.728502 11.591777 -0.000000 -0.000002 -0.000001 -4.173461 1.073065 22.333091 -1.431508 8.024075 31.180893 0.000004 -0.000001 0.000001 -84.454579 6.432299 4.934646 117.221537 -2.028562 -3.139386 13.747246 -4.993349 -10.243005 0.167587 0.148662 -0.044671 -0.000001 -0.000002 -0.000001 -99.873307 -5.845550 -1.962349 84.767675 0.642208 2.647610 -5.485723 1.784717 13.953068 -0.012200 -0.109718 0.262097 -0.000001 -0.000001 -0.000001 
